<?xml version="1.0"?>
<svg xmlns="http://www.w3.org/2000/svg" width="260" height="215" viewBox="0 0 288 238" fill="none">
    <path d="M50.1948 72.8615C50.5239 70.0224 52.3427 67.5745 54.966 66.44L124.555 36.3437C127.178 35.2092 130.207 35.5603 132.501 37.2649L193.36 82.4823C195.654 84.1869 196.865 86.9859 196.535 89.825L187.805 165.139C187.476 167.978 185.657 170.426 183.034 171.56L113.445 201.656C110.822 202.791 107.793 202.44 105.499 200.735L44.6402 155.518C42.346 153.813 41.1355 151.014 41.4646 148.175L50.1948 72.8615Z" fill="url(#paint0_linear)" fill-opacity="0.15"/>
    <path d="M50.6915 72.9191C51 70.2574 52.7051 67.9625 55.1644 66.8989L124.753 36.8026C127.212 35.739 130.052 36.0682 132.203 37.6662L193.062 82.8836C195.212 84.4817 196.347 87.1058 196.039 89.7674L187.309 165.081C187 167.743 185.295 170.038 182.836 171.101L113.247 201.197C110.788 202.261 107.948 201.932 105.797 200.334L44.9384 155.116C42.7876 153.518 41.6527 150.894 41.9613 148.233L50.6915 72.9191Z" stroke="url(#paint1_radial)"/>

    <g transform="translate(119, 86)">
        <path d="M30.145 6.12185L24.3015 0.278372C23.9305 -0.0926427 23.2812 0.185618 23.2812 0.649386V29.774C23.2812 30.145 23.374 30.5161 23.745 30.8871L30.6088 37.7508V7.23489C30.6088 6.77113 30.4233 6.40011 30.145 6.12185Z" fill="white"/>
        <path d="M55.0954 6.12161L49.2519 0.278132C48.8809 -0.185636 48.2316 0.0926252 48.2316 0.556393V37.6578H30.6084L36.9156 43.9651C37.2867 44.3361 37.6577 44.5216 38.1214 44.5216H51.6635C52.0345 44.5216 52.4055 44.4289 52.7765 44.0578L55.0954 41.739C55.4664 41.368 55.5591 40.997 55.5591 40.626V7.23465C55.5591 6.77089 55.4664 6.39987 55.0954 6.12161Z" fill="white"/>
        <path d="M7.32754 7.23469C7.32754 6.77092 7.23478 6.39991 6.86377 6.12164L1.02029 0.185414C0.556522 -0.185601 0 0.0926599 0 0.649182V32.6492C0 33.2057 0.278261 33.6695 0.556522 34.0405L10.4812 43.9651C10.8522 44.3361 11.3159 44.5216 11.8725 44.5216H26.5275C26.8986 44.5216 27.2696 44.4289 27.6406 44.0579L30.0522 41.6463C30.4232 41.2753 30.5159 40.9043 30.5159 40.5332V37.7506H7.32754V7.23469Z" fill="white"/>
        <path d="M136.811 6.12173L130.968 0.27825C130.597 -0.0927648 129.947 0.185496 129.947 0.649264V29.7739C129.947 30.1449 130.04 30.5159 130.411 30.8869L137.275 37.7507V7.23477C137.275 6.771 137.089 6.39999 136.811 6.12173Z" fill="white"/>
        <path d="M161.761 6.12173L155.918 0.278254C155.547 -0.185514 154.898 0.0927472 154.898 0.556515V37.658H137.274L143.582 43.9652C143.953 44.3362 144.324 44.5217 144.787 44.5217H158.33C158.701 44.5217 159.072 44.429 159.443 44.058L161.761 41.7391C162.132 41.3681 162.225 40.9971 162.225 40.6261V7.23478C162.225 6.77101 162.132 6.39999 161.761 6.12173Z" fill="white"/>
        <path d="M113.994 7.23469C113.994 6.77092 113.901 6.39991 113.53 6.12164L107.686 0.185414C107.223 -0.185601 106.666 0.0926599 106.666 0.649182V32.6492C106.666 33.2057 106.944 33.6695 107.223 34.0405L117.147 43.9651C117.518 44.3361 117.982 44.5216 118.538 44.5216H133.194C133.565 44.5216 133.936 44.4289 134.307 44.0579L136.718 41.6463C137.089 41.2753 137.182 40.9043 137.182 40.5332V37.7506H113.994V7.23469Z" fill="white"/>
        <path d="M9.98289 61.0035L7.9382 54.0018H6.13406L4.08938 61.0035L1.95448 54.0018H0L3.02193 63.7954H4.99144L7.03613 56.9545L9.08082 63.7954H11.0503L14.0723 54.0018H12.1178L9.98289 61.0035Z" fill="white"/>
        <path d="M19.7733 64C22.9606 64 25.0504 61.7051 25.0504 58.9132C25.0504 56.1067 22.9756 53.7971 19.7733 53.7971C16.601 53.7971 14.5112 56.1067 14.5112 58.9132C14.5112 61.7051 16.616 64 19.7733 64ZM19.7733 62.2898C17.6684 62.2898 16.3304 60.7257 16.3304 58.8986C16.3304 57.0568 17.6835 55.5073 19.7733 55.5073C21.8931 55.5073 23.2312 57.0568 23.2312 58.8986C23.2312 60.7257 21.9082 62.2898 19.7733 62.2898Z" fill="white"/>
        <path d="M26.7831 63.7954H33.9846V62.0852H28.5872V54.0018H26.7831V63.7954Z" fill="white"/>
        <path d="M42.9044 54.0018H35.3721V63.7954H37.1762V59.7756H42.4082V58.1239H37.1762V55.712H42.9044V54.0018Z" fill="white"/>
        <path d="M48.2924 63.7808H52.4419C55.3886 63.7808 57.5085 61.7197 57.5085 58.9132V58.8693C57.5085 56.0628 55.3886 54.0018 52.4419 54.0018H48.2924V63.7808ZM52.4118 55.712C54.3212 55.712 55.6893 56.9983 55.6893 58.8693V58.9132C55.6893 60.7842 54.3212 62.0852 52.4118 62.0852H50.0965V55.712H52.4118Z" fill="white"/>
        <path d="M59.2452 63.7954H61.0493V54.0018H59.2452V63.7954Z" fill="white"/>
        <path d="M67.9284 58.5039V60.141H71.2059C70.815 61.4274 69.6424 62.2898 68.0186 62.2752C65.9439 62.2606 64.5757 60.7257 64.5757 58.8693C64.5757 57.0714 65.8837 55.522 67.9735 55.5073C69.4319 55.5073 70.5444 56.2821 70.9955 57.3053H72.995C72.3937 55.2589 70.4993 53.7971 67.9886 53.7971C64.8163 53.7971 62.7566 56.1067 62.7566 58.9132C62.7566 61.7197 64.8614 64 67.9735 64C71.1608 64 73.3258 61.6905 73.2055 58.5039H67.9284Z" fill="white"/>
        <path d="M74.8963 63.7954H76.7004V54.0018H74.8963V63.7954Z" fill="white"/>
        <path d="M78.1979 54.0018V55.712H81.7009V63.7954H83.49V55.712H86.9931V54.0018H78.1979Z" fill="white"/>
        <path d="M96.6325 63.7954L92.3778 54.0018H90.3932L86.1535 63.7954H88.138L89.1153 61.442H93.6106L94.6029 63.7954H96.6325ZM91.3404 56.0774L92.934 59.8487H89.7768L91.3404 56.0774Z" fill="white"/>
        <path d="M97.8298 63.7954H105.031V62.0852H99.6339V54.0018H97.8298V63.7954Z" fill="white"/>
        <path d="M119.056 61.0035L117.011 54.0018H115.207L113.163 61.0035L111.028 54.0018H109.073L112.095 63.7954H114.065L116.109 56.9545L118.154 63.7954H120.124L123.146 54.0018H121.191L119.056 61.0035Z" fill="white"/>
        <path d="M128.847 64C132.034 64 134.124 61.7051 134.124 58.9132C134.124 56.1067 132.049 53.7971 128.847 53.7971C125.674 53.7971 123.584 56.1067 123.584 58.9132C123.584 61.7051 125.689 64 128.847 64ZM128.847 62.2898C126.742 62.2898 125.404 60.7257 125.404 58.8986C125.404 57.0568 126.757 55.5073 128.847 55.5073C130.966 55.5073 132.304 57.0568 132.304 58.8986C132.304 60.7257 130.981 62.2898 128.847 62.2898Z" fill="white"/>
        <path d="M137.661 63.7954V60.2872H142.036C142.487 60.2872 142.727 60.4919 142.727 60.9011V63.7954H144.531V60.5649C144.531 59.6002 144.14 59.0155 143.344 58.8255V58.7816C143.975 58.3431 144.336 57.6561 144.336 56.7352C144.336 54.9811 142.923 54.0018 140.968 54.0018H135.856V63.7954H137.661ZM137.661 55.712H140.848C141.795 55.712 142.532 56.2821 142.532 57.1737C142.532 58.0946 141.825 58.6501 140.848 58.6501H137.661V55.712Z" fill="white"/>
        <path d="M146.369 63.7954H153.57V62.0852H148.173V54.0018H146.369V63.7954Z" fill="white"/>
        <path d="M154.958 63.7808H159.107C162.054 63.7808 164.174 61.7197 164.174 58.9132V58.8693C164.174 56.0628 162.054 54.0018 159.107 54.0018H154.958V63.7808ZM159.077 55.712C160.987 55.712 162.355 56.9983 162.355 58.8693V58.9132C162.355 60.7842 160.987 62.0852 159.077 62.0852H156.762V55.712H159.077Z" fill="white"/>
        <path fill-rule="evenodd" clip-rule="evenodd" d="M71.7915 6.0154L65.948 0.171881C65.577 -0.199043 64.9277 0.0791497 64.9277 0.542918V36.1603C64.9277 36.5314 65.0205 36.9024 65.3915 37.2733L72.2553 44.1371V7.1284C72.2553 6.66463 72.0698 6.29371 71.7915 6.0154ZM89.9712 6.86368H73.9155C73.3371 6.86368 73.0474 6.16441 73.4564 5.75533L78.6553 0.556505C79.0263 0.185468 79.3973 5.68708e-06 79.861 5.68708e-06H93.4031C93.7741 5.68708e-06 94.1451 0.0927367 94.5162 0.463774L96.835 2.78261C97.206 3.15354 97.2988 3.52458 97.2988 3.89561V7.19487V37.2869V40.5862C97.2988 40.9572 97.206 41.3282 96.835 41.6992L94.5162 44.018C94.1451 44.389 93.7741 44.4818 93.4031 44.4818H79.861C79.3973 44.4818 79.0263 44.2963 78.6553 43.9253L72.348 37.6181H89.9712V6.86368Z" fill="white"/>
    </g>
    <defs>
        <linearGradient id="paint0_linear" x1="50.7267" y1="68.2734" x2="180.901" y2="164.992" gradientUnits="userSpaceOnUse">
            <stop stop-color="#D26FEB" stop-opacity="0.5"/>
            <stop offset="1" stop-color="#D26FEB"/>
            <stop offset="1" stop-color="#D26FEB"/>
        </linearGradient>
        <radialGradient id="paint1_radial" cx="0" cy="0" r="1" gradientUnits="userSpaceOnUse" gradientTransform="translate(80.5285 52.2108) rotate(61.049) scale(142.594)">
            <stop stop-color="#D26FEB"/>
            <stop offset="1" stop-color="#D26FEB" stop-opacity="0"/>
        </radialGradient>
    </defs>
</svg>
