<svg width="27" height="39" viewBox="0 0 27 39" fill="none" xmlns="http://www.w3.org/2000/svg">
<path d="M17.3072 19.6558L15.7491 19.6711V19.8295L14.007 20.5089L14.5792 21.97L15.7491 21.5051V30.149H14.5383V31.7072H18.1042V30.149H17.3072V19.6558Z" fill="url(#paint0_linear_2001_44405)"  transform="translate(4, 3.5)"/>
<path d="M1.72163 0.0783137V0.236682L0 0.911033L0.546634 2.38234L1.72163 1.91233V10.5563H0.510869V12.1144H4.08184V10.5563H3.27977V0.0629883L1.72163 0.0783137Z" fill="url(#paint1_linear_2001_44405)"  transform="translate(4, 3.5)"/>
<path d="M5.0364 20.4477C4.77754 20.1878 4.47265 19.9782 4.13726 19.8296C3.78135 19.6804 3.39927 19.6035 3.01334 19.6035C2.62741 19.6035 2.24537 19.6804 1.88946 19.8296C1.55156 19.9791 1.24347 20.1886 0.980093 20.4477C0.72289 20.7067 0.516663 21.0117 0.372157 21.3469C0.215306 21.7041 0.136906 22.0909 0.14226 22.481V28.9333C0.135672 29.3164 0.212368 29.6964 0.367044 30.047C0.509672 30.3947 0.719778 30.7107 0.985207 30.9768C1.24678 31.2294 1.55124 31.4336 1.88434 31.5796C2.2416 31.7364 2.62832 31.8148 3.01846 31.8095C3.40499 31.8117 3.78776 31.7334 4.14238 31.5796C4.47487 31.4308 4.77774 31.2231 5.0364 30.9665C5.2966 30.7001 5.50608 30.3885 5.65456 30.047C5.801 29.6938 5.87735 29.3156 5.87934 28.9333V22.4912C5.87719 22.1013 5.79729 21.7157 5.64433 21.3571C5.49471 21.0217 5.28913 20.7142 5.0364 20.4477ZM4.32117 28.9282C4.32365 29.1043 4.28703 29.2788 4.21391 29.439C4.14685 29.5951 4.05352 29.7385 3.93802 29.8631C3.80761 29.9875 3.65741 30.0894 3.49356 30.1645C3.33937 30.2338 3.17223 30.2697 3.00315 30.2697C2.83407 30.2697 2.6669 30.2338 2.5127 30.1645C2.34651 30.0991 2.19784 29.9959 2.07847 29.8631C1.95899 29.7536 1.86483 29.6193 1.80259 29.4697C1.73527 29.3078 1.70057 29.1342 1.70044 28.9588V22.4555C1.69406 22.28 1.7272 22.1054 1.79747 21.9446C1.86734 21.7808 1.96992 21.6331 2.0989 21.5103C2.21645 21.391 2.3573 21.2971 2.5127 21.2345C2.67285 21.161 2.84741 21.1244 3.02357 21.1272C3.19081 21.126 3.35634 21.1609 3.5089 21.2294C3.6627 21.3 3.80415 21.3948 3.92782 21.5103C4.05086 21.6369 4.15108 21.7839 4.2241 21.9446C4.29499 22.1054 4.32986 22.2798 4.32628 22.4555L4.32117 28.9282Z" fill="url(#paint2_linear_2001_44405)" transform="translate(4, 3.5)"/>
<path d="M17.2674 0.835586C17.0037 0.582965 16.6998 0.37582 16.3683 0.222553C15.6465 -0.0735331 14.8372 -0.0735331 14.1154 0.222553C13.776 0.366195 13.4699 0.578379 13.2162 0.845814C12.9534 1.10835 12.7405 1.41647 12.5879 1.75516C12.4414 2.11008 12.3651 2.49002 12.3631 2.87397V9.32114C12.3647 9.7111 12.4446 10.0968 12.5981 10.4553C12.7436 10.7939 12.9536 11.101 13.2162 11.3595C13.4722 11.6216 13.7779 11.83 14.1154 11.9725C14.4733 12.1273 14.8596 12.2056 15.2495 12.2024C15.633 12.2072 16.013 12.1288 16.3632 11.9725C16.6989 11.824 17.0052 11.6163 17.2674 11.3595C17.5237 11.0989 17.7283 10.7921 17.8703 10.4553C18.0298 10.0987 18.11 9.71174 18.1053 9.32114V2.87397C18.11 2.48666 18.0297 2.10302 17.8703 1.75005C17.7291 1.40978 17.5245 1.09945 17.2674 0.835586ZM16.5471 9.32114C16.5464 9.49804 16.5062 9.67256 16.4296 9.83201C16.3689 9.98963 16.2727 10.1312 16.1486 10.2458C15.9703 10.4309 15.74 10.5573 15.4882 10.6084C15.2364 10.6595 14.9749 10.6328 14.7386 10.5319C14.5811 10.4608 14.4375 10.3622 14.3146 10.2407C14.1946 10.1187 14.0992 9.97474 14.0336 9.81668C13.9572 9.65735 13.9188 9.48249 13.9213 9.30581V2.86374C13.9189 2.68815 13.9538 2.51406 14.0234 2.35287C14.0953 2.19981 14.1901 2.05858 14.3044 1.93397C14.4286 1.81672 14.572 1.72167 14.7284 1.65298C14.8887 1.5792 15.0629 1.54087 15.2393 1.54059C15.415 1.53667 15.5895 1.57157 15.7502 1.64277C15.9095 1.71327 16.0549 1.81192 16.1793 1.93397C16.2987 2.05644 16.394 2.20027 16.4603 2.35798C16.5311 2.51879 16.566 2.69315 16.5624 2.86885L16.5471 9.32114Z" fill="url(#paint3_linear_2001_44405)"  transform="translate(4, 3.5)"/>
<defs>
<linearGradient id="paint0_linear_2001_44405" x1="4579.09" y1="1814.58" x2="4579.09" y2="10768.5" gradientUnits="userSpaceOnUse">
<stop stop-color="#00FFFF"/>
<stop offset="1" stop-color="#00FFFF" stop-opacity="0"/>
</linearGradient>
<linearGradient id="paint1_linear_2001_44405" x1="4579.09" y1="1814.58" x2="4579.09" y2="10768.5" gradientUnits="userSpaceOnUse">
<stop stop-color="#00FFFF"/>
<stop offset="1" stop-color="#00FFFF" stop-opacity="0"/>
</linearGradient>
<linearGradient id="paint2_linear_2001_44405" x1="4579.09" y1="1814.58" x2="4579.09" y2="10768.5" gradientUnits="userSpaceOnUse">
<stop stop-color="#00FFFF"/>
<stop offset="1" stop-color="#00FFFF" stop-opacity="0"/>
</linearGradient>
<linearGradient id="paint3_linear_2001_44405" x1="4579.09" y1="1814.58" x2="4579.09" y2="10768.5" gradientUnits="userSpaceOnUse">
<stop stop-color="#00FFFF"/>
<stop offset="1" stop-color="#00FFFF" stop-opacity="0"/>
</linearGradient>
</defs>
</svg>
