<svg width="26" height="24" viewBox="0 0 23 20" fill="none" xmlns="http://www.w3.org/2000/svg">
<path d="M0 6H5L12 0V20L5 14H0V6Z" fill="white"/>
<path fill-rule="evenodd" clip-rule="evenodd" d="M16.25 10C16.25 8.61004 15.5835 7.37596 14.5496 6.59931L15.4504 5.39996C16.8454 6.44773 17.75 8.11833 17.75 10C17.75 11.8817 16.8454 13.5523 15.4504 14.6L14.5496 13.4007C15.5835 12.624 16.25 11.39 16.25 10Z" fill="white"/>
<path fill-rule="evenodd" clip-rule="evenodd" d="M21.25 10C21.25 6.97463 19.7984 4.28851 17.5505 2.59962L18.4515 1.40038C21.0603 3.3604 22.75 6.48298 22.75 10C22.75 13.5175 21.0598 16.6404 18.4504 18.6004L17.5496 17.4011C19.798 15.7122 21.25 13.0258 21.25 10Z" fill="white"/>
</svg>
