<svg width="36" height="36" viewBox="0 0 32 31" fill="none" xmlns="http://www.w3.org/2000/svg">
<path fill-rule="evenodd" clip-rule="evenodd" d="M8.68625 8H5V16H10L17 22V16.3138L8.68625 8ZM22.0554 14.7417L20.9314 13.6177C21.1368 13.119 21.25 12.5727 21.25 12C21.25 10.61 20.5835 9.37596 19.5496 8.59931L20.4504 7.39996C21.8454 8.44773 22.75 10.1183 22.75 12C22.75 12.9928 22.4982 13.9269 22.0554 14.7417ZM25.6701 18.3564L24.5951 17.2815C25.6387 15.7837 26.25 13.9633 26.25 12C26.25 8.97463 24.7984 6.28851 22.5505 4.59962L23.4515 3.40038C26.0603 5.3604 27.75 8.48298 27.75 12C27.75 14.3784 26.9773 16.5764 25.6701 18.3564ZM17 9.68631L12.8612 5.54753L17 2V9.68631Z" fill="white"/>
<rect x="4.46185" y="1.51294" width="1.49809" height="30.0473" transform="rotate(-45 4.46185 1.51294)" fill="white"/>
</svg>
